<svg
	width="256"
	height="256"
	viewBox="0 0 256 256"
	fill="none"
	xmlns="http://www.w3.org/2000/svg"
>
	<rect x="160" y="192" width="14" height="14" rx="rx" />
	<rect x="164" y="176" width="14" height="14" rx="rx" />
	<rect x="168" y="160" width="14" height="14" rx="rx" />
	<rect x="172" y="144" width="14" height="14" rx="rx" />
	<rect x="176" y="128" width="14" height="14" rx="rx" />
	<rect x="192" y="128" width="14" height="14" rx="rx" />
	<rect x="64" y="128" width="14" height="14" rx="rx" />
	<rect x="152" y="208" width="14" height="14" rx="rx" />
	<rect x="84" y="112" width="14" height="14" rx="rx" />
	<rect x="88" y="96" width="14" height="14" rx="rx" />
	<rect x="92" y="80" width="14" height="14" rx="rx" />
	<rect x="96" y="64" width="14" height="14" rx="rx" />
	<rect x="104" y="48" width="14" height="14" rx="rx" />
	<rect x="80" y="128" width="14" height="14" rx="rx" />
	<rect x="120" y="96" width="14" height="14" rx="rx" />
	<rect x="116" y="80" width="14" height="14" rx="rx" />
	<rect x="112" y="64" width="14" height="14" rx="rx" />
	<rect x="136" y="160" width="14" height="14" rx="rx" />
	<rect x="140" y="176" width="14" height="14" rx="rx" />
	<rect x="124" y="112" width="14" height="14" rx="rx" />
	<rect x="128" y="128" width="14" height="14" rx="rx" />
	<rect x="132" y="144" width="14" height="14" rx="rx" />
	<rect x="144" y="192" width="14" height="14" rx="rx" />
</svg>
