<svg width="256" height="256" viewBox="0 0 256 256" fill="none"
  stroke="currentColor"
  stroke-width="2"
  stroke-linecap="round"
  stroke-linejoin="round"
 xmlns="http://www.w3.org/2000/svg">
<rect x="160" y="112" width="14" height="14" transform="rotate(180 160 112)"  />
<rect x="176" y="96" width="14" height="14" transform="rotate(180 176 96)" />
<rect x="96" y="176" width="14" height="14" transform="rotate(180 96 176)" />
<rect x="80" y="192" width="14" height="14" transform="rotate(180 80 192)" />
<rect x="80" y="176" width="14" height="14" transform="rotate(180 80 176)" />
<rect x="80" y="160" width="14" height="14" transform="rotate(180 80 160)" />
<rect x="80" y="144" width="14" height="14" transform="rotate(180 80 144)" />
<rect x="80" y="128" width="14" height="14" transform="rotate(180 80 128)" />
<rect x="96" y="192" width="14" height="14" transform="rotate(180 96 192)" />
<rect x="112" y="192" width="14" height="14" transform="rotate(180 112 192)" />
<rect x="128" y="192" width="14" height="14" transform="rotate(180 128 192)" />
<rect x="144" y="192" width="14" height="14" transform="rotate(180 144 192)" />
<rect x="144" y="128" width="14" height="14" transform="rotate(180 144 128)" />
<rect x="128" y="144" width="14" height="14" transform="rotate(180 128 144)" />
<rect x="112" y="160" width="14" height="14" transform="rotate(180 112 160)" />
</svg>
