<svg
	width="256"
	height="256"
	viewBox="0 0 256 256"
	fill="none"
	xmlns="http://www.w3.org/2000/svg"
>
	<rect x="76" y="120" width="14" height="14" rx="rx" />
	<rect x="108" y="120" width="14" height="14" rx="rx" />
	<rect x="92" y="120" width="14" height="14" rx="rx" />
	<rect x="124" y="120" width="14" height="14" rx="rx" />
	<rect x="156" y="120" width="14" height="14" rx="rx" />
	<rect x="172" y="120" width="14" height="14" rx="rx" />
	<rect x="172" y="136" width="14" height="14" rx="rx" />
	<rect x="156" y="152" width="14" height="14" rx="rx" />
	<rect x="140" y="72" width="14" height="14" rx="rx" />
	<rect x="140" y="168" width="14" height="14" rx="rx" />
	<rect x="188" y="120" width="14" height="14" rx="rx" />
	<rect x="172" y="104" width="14" height="14" rx="rx" />
	<rect x="156" y="88" width="14" height="14" rx="rx" />
	<rect x="140" y="120" width="14" height="14" rx="rx" />
	<rect x="48" y="64" width="14" height="14" rx="rx" />
	<rect x="48" y="80" width="14" height="14" rx="rx" />
	<rect x="48" y="96" width="14" height="14" rx="rx" />
	<rect x="48" y="112" width="14" height="14" rx="rx" />
	<rect x="48" y="128" width="14" height="14" rx="rx" />
	<rect x="48" y="144" width="14" height="14" rx="rx" />
	<rect x="48" y="160" width="14" height="14" rx="rx" />
	<rect x="48" y="176" width="14" height="14" rx="rx" />
</svg>
