<svg width="256" height="256" viewBox="0 0 256 256" fill="none"
  stroke="currentColor"
  stroke-width="2"
  stroke-linecap="round"
  stroke-linejoin="round"
 xmlns="http://www.w3.org/2000/svg">
<rect x="112" y="96" width="14" height="14" transform="rotate(90 112 96)" />
<rect x="96" y="80" width="14" height="14" transform="rotate(90 96 80)" />
<rect x="176" y="160" width="14" height="14" transform="rotate(90 176 160)" />
<rect x="192" y="176" width="14" height="14" transform="rotate(90 192 176)" />
<rect x="176" y="176" width="14" height="14" transform="rotate(90 176 176)" />
<rect x="160" y="176" width="14" height="14" transform="rotate(90 160 176)" />
<rect x="144" y="176" width="14" height="14" transform="rotate(90 144 176)" />
<rect x="128" y="176" width="14" height="14" transform="rotate(90 128 176)" />
<rect x="192" y="160" width="14" height="14" transform="rotate(90 192 160)" />
<rect x="192" y="144" width="14" height="14" transform="rotate(90 192 144)" />
<rect x="192" y="128" width="14" height="14" transform="rotate(90 192 128)" />
<rect x="192" y="112" width="14" height="14" transform="rotate(90 192 112)" />
<rect x="128" y="112" width="14" height="14" transform="rotate(90 128 112)" />
<rect x="144" y="128" width="14" height="14" transform="rotate(90 144 128)" />
<rect x="160" y="144" width="14" height="14" transform="rotate(90 160 144)" />
</svg>
