<svg
	width="256"
	height="256"
	viewBox="0 0 256 256"
	fill="none"
	xmlns="http://www.w3.org/2000/svg"
>
	<rect x="76" y="80" width="14" height="14" rx="rx" />
	<rect x="76" y="64" width="14" height="14" rx="rx" />
	<rect x="76" y="48" width="14" height="14" rx="rx" />
	<rect x="76" y="96" width="14" height="14" rx="rx" />
	<rect x="76" y="128" width="14" height="14" rx="rx" />
	<rect x="76" y="112" width="14" height="14" rx="rx" />
	<rect x="76" y="144" width="14" height="14" rx="rx" />
	<rect x="76" y="176" width="14" height="14" rx="rx" />
	<rect x="76" y="160" width="14" height="14" rx="rx" />
	<rect x="76" y="192" width="14" height="14" rx="rx" />
	<rect x="92" y="176" width="14" height="14" rx="rx" />
	<rect x="108" y="160" width="14" height="14" rx="rx" />
	<rect x="172" y="48" width="14" height="14" rx="rx" />
	<rect x="164" y="144" width="14" height="14" rx="rx" />
	<rect x="180" y="144" width="14" height="14" rx="rx" />
	<rect x="180" y="160" width="14" height="14" rx="rx" />
	<rect x="180" y="176" width="14" height="14" rx="rx" />
	<rect x="164" y="192" width="14" height="14" rx="rx" />
	<rect x="196" y="192" width="14" height="14" rx="rx" />
	<rect x="180" y="192" width="14" height="14" rx="rx" />
	<rect x="164" y="64" width="14" height="14" rx="rx" />
	<rect x="164" y="80" width="14" height="14" rx="rx" />
	<rect x="196" y="80" width="14" height="14" rx="rx" />
	<rect x="172" y="96" width="14" height="14" rx="rx" />
	<rect x="188" y="96" width="14" height="14" rx="rx" />
	<rect x="196" y="64" width="14" height="14" rx="rx" />
	<rect x="188" y="48" width="14" height="14" rx="rx" />
	<rect x="60" y="176" width="14" height="14" rx="rx" />
	<rect x="44" y="160" width="14" height="14" rx="rx" />
</svg>
