<svg
	width="256"
	height="256"
	viewBox="0 0 256 256"
	fill="none"
	xmlns="http://www.w3.org/2000/svg"
>
	<rect x="152" y="168" width="14" height="14" rx="rx" transform="rotate(-90 152 168)" />
	<rect x="168" y="184" width="14" height="14" rx="rx" transform="rotate(-90 168 184)" />
	<rect x="88" y="104" width="14" height="14" rx="rx" transform="rotate(-90 88 104)" />
	<rect x="72" y="88" width="14" height="14" rx="rx" transform="rotate(-90 72 88)" />
	<rect x="88" y="88" width="14" height="14" rx="rx" transform="rotate(-90 88 88)" />
	<rect x="104" y="88" width="14" height="14" rx="rx" transform="rotate(-90 104 88)" />
	<rect x="120" y="88" width="14" height="14" rx="rx" transform="rotate(-90 120 88)" />
	<rect x="136" y="88" width="14" height="14" rx="rx" transform="rotate(-90 136 88)" />
	<rect x="72" y="104" width="14" height="14" rx="rx" transform="rotate(-90 72 104)" />
	<rect x="72" y="120" width="14" height="14" rx="rx" transform="rotate(-90 72 120)" />
	<rect x="72" y="136" width="14" height="14" rx="rx" transform="rotate(-90 72 136)" />
	<rect x="72" y="152" width="14" height="14" rx="rx" transform="rotate(-90 72 152)" />
	<rect x="136" y="152" width="14" height="14" rx="rx" transform="rotate(-90 136 152)" />
	<rect x="120" y="136" width="14" height="14" rx="rx" transform="rotate(-90 120 136)" />
	<rect x="104" y="120" width="14" height="14" rx="rx" transform="rotate(-90 104 120)" />
</svg>
