<svg
	width="256"
	height="256"
	viewBox="0 0 256 256"
	fill="none"
	xmlns="http://www.w3.org/2000/svg"
>
	<rect x="168" y="104" width="14" height="14" rx="rx" transform="rotate(180 168 104)" />
	<rect x="184" y="88" width="14" height="14" rx="rx" transform="rotate(180 184 88)" />
	<rect x="104" y="168" width="14" height="14" rx="rx" transform="rotate(180 104 168)" />
	<rect x="88" y="184" width="14" height="14" rx="rx" transform="rotate(180 88 184)" />
	<rect x="88" y="168" width="14" height="14" rx="rx" transform="rotate(180 88 168)" />
	<rect x="88" y="152" width="14" height="14" rx="rx" transform="rotate(180 88 152)" />
	<rect x="88" y="136" width="14" height="14" rx="rx" transform="rotate(180 88 136)" />
	<rect x="88" y="120" width="14" height="14" rx="rx" transform="rotate(180 88 120)" />
	<rect x="104" y="184" width="14" height="14" rx="rx" transform="rotate(180 104 184)" />
	<rect x="120" y="184" width="14" height="14" rx="rx" transform="rotate(180 120 184)" />
	<rect x="136" y="184" width="14" height="14" rx="rx" transform="rotate(180 136 184)" />
	<rect x="152" y="184" width="14" height="14" rx="rx" transform="rotate(180 152 184)" />
	<rect x="152" y="120" width="14" height="14" rx="rx" transform="rotate(180 152 120)" />
	<rect x="136" y="136" width="14" height="14" rx="rx" transform="rotate(180 136 136)" />
	<rect x="120" y="152" width="14" height="14" rx="rx" transform="rotate(180 120 152)" />
</svg>
