<svg
	width="256"
	height="256"
	viewBox="0 0 256 256"
	fill="none"
	xmlns="http://www.w3.org/2000/svg"
>
	<rect x="152" y="48" width="14" height="14" rx="rx" />
	<rect x="168" y="48" width="14" height="14" rx="rx" />
	<rect x="168" y="64" width="14" height="14" rx="rx" />
	<rect x="168" y="80" width="14" height="14" rx="rx" />
	<rect x="152" y="96" width="14" height="14" rx="rx" />
	<rect x="184" y="96" width="14" height="14" rx="rx" />
	<rect x="168" y="96" width="14" height="14" rx="rx" />
	<rect x="160" y="144" width="14" height="14" rx="rx" />
	<rect x="152" y="160" width="14" height="14" rx="rx" />
	<rect x="152" y="176" width="14" height="14" rx="rx" />
	<rect x="184" y="176" width="14" height="14" rx="rx" />
	<rect x="160" y="192" width="14" height="14" rx="rx" />
	<rect x="176" y="192" width="14" height="14" rx="rx" />
	<rect x="184" y="160" width="14" height="14" rx="rx" />
	<rect x="176" y="144" width="14" height="14" rx="rx" />
	<rect x="64" y="48" width="14" height="14" rx="rx" />
	<rect x="56" y="144" width="14" height="14" rx="rx" />
	<rect x="72" y="144" width="14" height="14" rx="rx" />
	<rect x="72" y="160" width="14" height="14" rx="rx" />
	<rect x="72" y="176" width="14" height="14" rx="rx" />
	<rect x="56" y="192" width="14" height="14" rx="rx" />
	<rect x="88" y="192" width="14" height="14" rx="rx" />
	<rect x="72" y="192" width="14" height="14" rx="rx" />
	<rect x="56" y="64" width="14" height="14" rx="rx" />
	<rect x="56" y="80" width="14" height="14" rx="rx" />
	<rect x="88" y="80" width="14" height="14" rx="rx" />
	<rect x="64" y="96" width="14" height="14" rx="rx" />
	<rect x="80" y="96" width="14" height="14" rx="rx" />
	<rect x="88" y="64" width="14" height="14" rx="rx" />
	<rect x="80" y="48" width="14" height="14" rx="rx" />
</svg>
