<svg
	width="256"
	height="256"
	viewBox="0 0 256 256"
	fill="none"
	xmlns="http://www.w3.org/2000/svg"
>
	<rect width="14" height="14" rx="rx" transform="matrix(0 -1 -1 0 112 152)" />
	<rect width="14" height="14" rx="rx" transform="matrix(0 -1 -1 0 96 168)" />
	<rect width="14" height="14" rx="rx" transform="matrix(0 -1 -1 0 176 168)" />
	<rect width="14" height="14" rx="rx" transform="matrix(0 -1 -1 0 128 216)" />
	<rect width="14" height="14" rx="rx" transform="matrix(0 -1 -1 0 128 168)" />
	<rect width="14" height="14" rx="rx" transform="matrix(0 -1 -1 0 176 104)" />
	<rect width="14" height="14" rx="rx" transform="matrix(0 -1 -1 0 128 72)" />
	<rect width="14" height="14" rx="rx" transform="matrix(0 -1 -1 0 128 56)" />
	<rect width="14" height="14" rx="rx" transform="matrix(0 -1 -1 0 128 88)" />
	<rect width="14" height="14" rx="rx" transform="matrix(0 -1 -1 0 128 200)" />
	<rect width="14" height="14" rx="rx" transform="matrix(0 -1 -1 0 160 120)" />
	<rect width="14" height="14" rx="rx" transform="matrix(0 -1 -1 0 160 184)" />
	<rect width="14" height="14" rx="rx" transform="matrix(0 -1 -1 0 144 200)" />
	<rect width="14" height="14" rx="rx" transform="matrix(0 -1 -1 0 144 136)" />
	<rect width="14" height="14" rx="rx" transform="matrix(0 -1 -1 0 128 136)" />
	<rect width="14" height="14" rx="rx" transform="matrix(0 -1 -1 0 112 120)" />
	<rect width="14" height="14" rx="rx" transform="matrix(0 -1 -1 0 128 184)" />
	<rect width="14" height="14" rx="rx" transform="matrix(0 -1 -1 0 160 152)" />
	<rect width="14" height="14" rx="rx" transform="matrix(0 -1 -1 0 160 88)" />
	<rect width="14" height="14" rx="rx" transform="matrix(0 -1 -1 0 144 72)" />
	<rect width="14" height="14" rx="rx" transform="matrix(0 -1 -1 0 128 120)" />
	<rect width="14" height="14" rx="rx" transform="matrix(0 -1 -1 0 128 104)" />
	<rect width="14" height="14" rx="rx" transform="matrix(0 -1 -1 0 128 152)" />
	<rect width="14" height="14" rx="rx" transform="matrix(0 -1 -1 0 96 104)" />
</svg>
