<svg width="256" height="256" viewBox="0 0 256 256" fill="none" xmlns="http://www.w3.org/2000/svg">
<rect width="16" height="16" transform="matrix(0 -1 -1 0 104 152)" />
<rect width="16" height="16" transform="matrix(0 -1 -1 0 104 168)" />
<rect width="16" height="16" transform="matrix(0 -1 -1 0 184 168)" />
<rect width="16" height="16" transform="matrix(0 -1 -1 0 168 184)" />
<rect width="16" height="16" transform="matrix(0 -1 -1 0 152 184)" />
<rect width="16" height="16" transform="matrix(0 -1 -1 0 104 184)" />
<rect width="16" height="16" transform="matrix(0 -1 -1 0 88 184)" />
<rect width="16" height="16" transform="matrix(0 -1 -1 0 120 184)" />
<rect width="16" height="16" transform="matrix(0 -1 -1 0 104 120)" />
<rect width="16" height="16" transform="matrix(0 -1 -1 0 152 120)" />
<rect width="16" height="16" transform="matrix(0 -1 -1 0 184 56)" />
<rect width="16" height="16" transform="matrix(0 -1 -1 0 168 120)" />
<rect width="16" height="16" transform="matrix(0 -1 -1 0 184 136)" />
<rect width="16" height="16" transform="matrix(0 -1 -1 0 104 136)" />
<rect width="16" height="16" transform="matrix(0 -1 -1 0 168 152)" />
<rect width="16" height="16" transform="matrix(0 -1 -1 0 88 56)" />
<rect width="16" height="16" transform="matrix(0 -1 -1 0 88 136)" />
<rect x="152" y="200" width="14" height="14" rx="rx"/>
<rect x="168" y="200" width="14" height="14" rx="rx"/>
<rect x="184" y="200" width="14" height="14" rx="rx"/>
<rect x="56" y="200" width="14" height="14" rx="rx"/>
<rect x="40" y="200" width="14" height="14" rx="rx"/>
<rect x="136" y="200" width="14" height="14" rx="rx"/>
<rect x="120" y="200" width="14" height="14" rx="rx"/>
<rect x="104" y="200" width="14" height="14" rx="rx"/>
<rect x="72" y="200" width="14" height="14" rx="rx"/>
<rect x="88" y="200" width="14" height="14" rx="rx"/>
<rect x="152" y="56" width="14" height="14" rx="rx"/>
<rect x="168" y="56" width="14" height="14" rx="rx"/>
<rect x="184" y="56" width="14" height="14" rx="rx"/>
<rect x="200" y="56" width="14" height="14" rx="rx"/>
<rect x="56" y="56" width="14" height="14" rx="rx"/>
<rect x="136" y="56" width="14" height="14" rx="rx"/>
<rect x="120" y="56" width="14" height="14" rx="rx"/>
<rect x="104" y="56" width="14" height="14" rx="rx"/>
<rect x="72" y="56" width="14" height="14" rx="rx"/>
<rect x="88" y="56" width="14" height="14" rx="rx"/>
<rect x="152" y="72" width="14" height="14" rx="rx"/>
<rect x="168" y="72" width="14" height="14" rx="rx"/>
<rect x="184" y="72" width="14" height="14" rx="rx"/>
<rect x="56" y="72" width="14" height="14" rx="rx"/>
<rect x="136" y="72" width="14" height="14" rx="rx"/>
<rect x="120" y="72" width="14" height="14" rx="rx"/>
<rect x="104" y="72" width="14" height="14" rx="rx"/>
<rect x="72" y="72" width="14" height="14" rx="rx"/>
<rect x="88" y="72" width="14" height="14" rx="rx"/>
<rect x="40" y="104" width="14" height="14" rx="rx"/>
<rect x="40" y="120" width="14" height="14" rx="rx"/>
<rect x="40" y="56" width="14" height="14" rx="rx"/>
<rect x="40" y="88" width="14" height="14" rx="rx"/>
<rect x="40" y="72" width="14" height="14" rx="rx"/>
<rect x="40" y="136" width="14" height="14" rx="rx"/>
<rect x="40" y="152" width="14" height="14" rx="rx"/>
<rect x="40" y="168" width="14" height="14" rx="rx"/>
<rect x="40" y="184" width="14" height="14" rx="rx"/>
<rect x="200" y="120" width="14" height="14" rx="rx"/>
<rect x="200" y="136" width="14" height="14" rx="rx"/>
<rect x="200" y="72" width="14" height="14" rx="rx"/>
<rect x="200" y="104" width="14" height="14" rx="rx"/>
<rect x="200" y="88" width="14" height="14" rx="rx"/>
<rect x="200" y="152" width="14" height="14" rx="rx"/>
<rect x="200" y="168" width="14" height="14" rx="rx"/>
<rect x="200" y="184" width="14" height="14" rx="rx"/>
<rect x="200" y="200" width="14" height="14" rx="rx"/>
</svg>
