<svg
	width="256"
	height="256"
	viewBox="0 0 256 256"
	fill="none"
	xmlns="http://www.w3.org/2000/svg"
>
	<rect x="88" y="172" width="14" height="14" />
	<rect x="152" y="172" width="14" height="14" />
	<rect x="184" y="172" width="14" height="14" />
	<rect x="56" y="172" width="14" height="14" />
	<rect x="88" y="92" width="14" height="14" />
	<rect x="72" y="92" width="14" height="14" />
	<rect x="56" y="44" width="14" height="14" />
	<rect x="40" y="44" width="14" height="14" />
	<rect x="72" y="172" width="14" height="14" />
	<rect x="104" y="92" width="14" height="14" />
	<rect x="184" y="92" width="14" height="14" />
	<rect x="200" y="108" width="14" height="14" />
	<rect x="200" y="92" width="14" height="14" />
	<rect x="56" y="92" width="14" height="14" />
	<rect x="72" y="196" width="14" height="14" />
	<rect x="120" y="92" width="14" height="14" />
	<rect x="136" y="92" width="14" height="14" />
	<rect x="152" y="172" width="14" height="14" />
	<rect x="168" y="172" width="14" height="14" />
	<rect x="168" y="92" width="14" height="14" />
	<rect x="152" y="92" width="14" height="14" />
	<rect x="184" y="196" width="14" height="14" />
	<rect x="136" y="172" width="14" height="14" />
	<rect x="120" y="172" width="14" height="14" />
	<rect x="104" y="172" width="14" height="14" />
	<rect x="56" y="140" width="14" height="14" />
	<rect x="56" y="124" width="14" height="14" />
	<rect x="56" y="108" width="14" height="14" />
	<rect x="56" y="76" width="14" height="14" />
	<rect x="56" y="60" width="14" height="14" />
	<rect x="56" y="156" width="14" height="14" />
	<rect x="200" y="140" width="14" height="14" />
	<rect x="200" y="124" width="14" height="14" />
	<rect x="200" y="156" width="14" height="14" />
	<rect x="200" y="172" width="14" height="14" />
</svg>
