<svg width="256" height="256" viewBox="0 0 256 256" fill="none" xmlns="http://www.w3.org/2000/svg">
<rect x="200" y="96" width="14" height="14" rx="rx" />
<rect x="200" y="112" width="14" height="14" rx="rx" />
<rect x="184" y="80" width="14" height="14" rx="rx" />
<rect x="184" y="64" width="14" height="14" rx="rx" />
<rect x="200" y="80" width="14" height="14" rx="rx" />
<rect x="168" y="64" width="14" height="14" rx="rx" />
<rect x="168" y="48" width="14" height="14" rx="rx" />
<rect x="152" y="48" width="14" height="14" rx="rx" />
<rect x="136" y="48" width="14" height="14" rx="rx" />
<rect x="120" y="48" width="14" height="14" rx="rx" />
<rect x="56" y="64" width="14" height="14" rx="rx" />
<rect x="72" y="64" width="14" height="14" rx="rx" />
<rect x="88" y="48" width="14" height="14" rx="rx" />
<rect x="104" y="48" width="14" height="14" rx="rx" />
<rect x="56" y="80" width="14" height="14" rx="rx" />
<rect x="40" y="80" width="14" height="14" rx="rx" />
<rect x="40" y="96" width="14" height="14" rx="rx" />
<rect x="40" y="112" width="14" height="14" rx="rx" />
<rect x="40" y="128" width="14" height="14" rx="rx" />
<rect x="40" y="144" width="14" height="14" rx="rx" />
<rect x="104" y="192" width="14" height="14" rx="rx" />
<rect x="88" y="192" width="14" height="14" rx="rx" />
<rect x="72" y="176" width="14" height="14" rx="rx" />
<rect x="56" y="176" width="14" height="14" rx="rx" />
<rect x="56" y="160" width="14" height="14" rx="rx" />
<rect x="40" y="160" width="14" height="14" rx="rx" />
<rect x="120" y="192" width="14" height="14" rx="rx" />
<rect x="136" y="192" width="14" height="14" rx="rx" />
<rect x="152" y="192" width="14" height="14" rx="rx" />
<rect x="168" y="192" width="14" height="14" rx="rx" />
<rect x="72" y="48" width="14" height="14" rx="rx" />
<rect x="72" y="192" width="14" height="14" rx="rx" />
<rect x="168" y="176" width="14" height="14" rx="rx" />
<rect x="184" y="176" width="14" height="14" rx="rx" />
<rect x="184" y="160" width="14" height="14" rx="rx" />
<rect x="200" y="160" width="14" height="14" rx="rx" />
<rect x="200" y="144" width="14" height="14" rx="rx" />
<rect x="200" y="128" width="14" height="14" rx="rx" />
</svg>
