<svg
	width="256"
	height="256"
	viewBox="0 0 256 256"
	fill="none"
	xmlns="http://www.w3.org/2000/svg"
>
	<rect x="200" y="72" width="14" height="14" rx="rx" />
	<rect x="200" y="88" width="14" height="14" rx="rx" />
	<rect x="184" y="72" width="14" height="14" rx="rx" />
	<rect x="184" y="56" width="14" height="14" rx="rx" />
	<rect x="200" y="104" width="14" height="14" rx="rx" />
	<rect x="168" y="40" width="14" height="14" rx="rx" />
	<rect x="168" y="56" width="14" height="14" rx="rx" />
	<rect x="152" y="40" width="14" height="14" rx="rx" />
	<rect x="136" y="40" width="14" height="14" rx="rx" />
	<rect x="120" y="40" width="14" height="14" rx="rx" />
	<rect x="56" y="56" width="14" height="14" rx="rx" />
	<rect x="72" y="56" width="14" height="14" rx="rx" />
	<rect x="120" y="88" width="14" height="14" rx="rx" />
	<rect x="120" y="72" width="14" height="14" rx="rx" />
	<rect x="120" y="104" width="14" height="14" rx="rx" />
	<rect x="120" y="120" width="14" height="14" rx="rx" />
	<rect x="136" y="120" width="14" height="14" rx="rx" />
	<rect x="152" y="120" width="14" height="14" rx="rx" />
	<rect x="88" y="40" width="14" height="14" rx="rx" />
	<rect x="104" y="40" width="14" height="14" rx="rx" />
	<rect x="56" y="72" width="14" height="14" rx="rx" />
	<rect x="40" y="72" width="14" height="14" rx="rx" />
	<rect x="40" y="88" width="14" height="14" rx="rx" />
	<rect x="40" y="104" width="14" height="14" rx="rx" />
	<rect x="40" y="120" width="14" height="14" rx="rx" />
	<rect x="40" y="136" width="14" height="14" rx="rx" />
	<rect x="104" y="200" width="14" height="14" rx="rx" />
	<rect x="88" y="200" width="14" height="14" rx="rx" />
	<rect x="72" y="184" width="14" height="14" rx="rx" />
	<rect x="56" y="184" width="14" height="14" rx="rx" />
	<rect x="56" y="168" width="14" height="14" rx="rx" />
	<rect x="40" y="168" width="14" height="14" rx="rx" />
	<rect x="120" y="200" width="14" height="14" rx="rx" />
	<rect x="136" y="200" width="14" height="14" rx="rx" />
	<rect x="152" y="200" width="14" height="14" rx="rx" />
	<rect x="168" y="200" width="14" height="14" rx="rx" />
	<rect x="72" y="40" width="14" height="14" rx="rx" />
	<rect x="72" y="200" width="14" height="14" rx="rx" />
	<rect x="168" y="184" width="14" height="14" rx="rx" />
	<rect x="184" y="184" width="14" height="14" rx="rx" />
	<rect x="184" y="168" width="14" height="14" rx="rx" />
	<rect x="200" y="168" width="14" height="14" rx="rx" />
	<rect x="200" y="136" width="14" height="14" rx="rx" />
	<rect x="200" y="152" width="14" height="14" rx="rx" />
	<rect x="40" y="152" width="14" height="14" rx="rx" />
	<rect x="200" y="120" width="14" height="14" rx="rx" />
</svg>
