<svg
	width="256"
	height="256"
	viewBox="0 0 256 256"
	fill="currentColor"
	stroke="currentColor"
	stroke-width="0"
	stroke-linecap="round"
	stroke-linejoin="round"
	xmlns="http://www.w3.org/2000/svg"
>
	<rect x="80" y="32" width="14" height="14" />
	<rect x="64" y="32" width="14" height="14" />
	<rect x="48" y="48" width="14" height="14" />
	<rect x="32" y="64" width="14" height="14" />
	<rect x="176" y="32" width="14" height="14" />
	<rect x="192" y="48" width="14" height="14" />
	<rect x="64" y="208" width="14" height="14" />
	<rect x="48" y="192" width="14" height="14" />
	<rect x="112" y="128" width="14" height="14" />
	<rect x="128" y="128" width="14" height="14" />
	<rect x="144" y="128" width="14" height="14" />
	<rect x="160" y="128" width="14" height="14" />
	<rect x="192" y="192" width="14" height="14" />
	<rect x="176" y="208" width="14" height="14" />
	<rect x="208" y="176" width="14" height="14" />
	<rect x="32" y="80" width="14" height="14" />
	<rect x="32" y="96" width="14" height="14" />
	<rect x="32" y="112" width="14" height="14" />
	<rect x="32" y="128" width="14" height="14" />
	<rect x="32" y="144" width="14" height="14" />
	<rect x="32" y="160" width="14" height="14" />
	<rect x="32" y="176" width="14" height="14" />
	<rect x="208" y="64" width="14" height="14" />
	<rect x="208" y="80" width="14" height="14" />
	<rect x="208" y="96" width="14" height="14" />
	<rect x="208" y="112" width="14" height="14" />
	<rect x="112" y="64" width="14" height="14" />
	<rect x="112" y="80" width="14" height="14" />
	<rect x="112" y="96" width="14" height="14" />
	<rect x="112" y="112" width="14" height="14" />
	<rect x="208" y="128" width="14" height="14" />
	<rect x="208" y="144" width="14" height="14" />
	<rect x="208" y="160" width="14" height="14" />
	<rect x="96" y="32" width="14" height="14" />
	<rect x="112" y="32" width="14" height="14" />
	<rect x="128" y="32" width="14" height="14" />
	<rect x="144" y="32" width="14" height="14" />
	<rect x="160" y="32" width="14" height="14" />
	<rect x="80" y="208" width="14" height="14" />
	<rect x="96" y="208" width="14" height="14" />
	<rect x="112" y="208" width="14" height="14" />
	<rect x="128" y="208" width="14" height="14" />
	<rect x="144" y="208" width="14" height="14" />
	<rect x="160" y="208" width="14" height="14" />
</svg>
