<svg
	width="256"
	height="256"
	viewBox="0 0 256 256"
	fill="none"
	xmlns="http://www.w3.org/2000/svg"
>
	<rect x="48" y="144" width="14" height="14" rx="rx" />
	<rect x="48" y="32" width="14" height="14" rx="rx" />
	<rect x="64" y="32" width="14" height="14" rx="rx" />
	<rect x="48" y="160" width="14" height="14" rx="rx" />
	<rect x="48" y="128" width="14" height="14" rx="rx" />
	<rect x="48" y="176" width="14" height="14" rx="rx" />
	<rect x="48" y="192" width="14" height="14" rx="rx" />
	<rect x="64" y="208" width="14" height="14" rx="rx" />
	<rect x="144" y="32" width="14" height="14" rx="rx" />
	<rect x="192" y="160" width="14" height="14" rx="rx" />
	<rect x="192" y="144" width="14" height="14" rx="rx" />
	<rect x="192" y="176" width="14" height="14" rx="rx" />
	<rect x="192" y="192" width="14" height="14" rx="rx" />
	<rect x="144" y="208" width="14" height="14" rx="rx" />
	<rect x="128" y="32" width="14" height="14" rx="rx" />
	<rect x="192" y="128" width="14" height="14" rx="rx" />
	<rect x="48" y="112" width="14" height="14" rx="rx" />
	<rect x="48" y="80" width="14" height="14" rx="rx" />
	<rect x="48" y="96" width="14" height="14" rx="rx" />
	<rect x="48" y="64" width="14" height="14" rx="rx" />
	<rect x="48" y="48" width="14" height="14" rx="rx" />
	<rect x="192" y="96" width="14" height="14" rx="rx" />
	<rect x="192" y="112" width="14" height="14" rx="rx" />
	<rect x="192" y="80" width="14" height="14" rx="rx" />
	<rect x="176" y="64" width="14" height="14" rx="rx" />
	<rect x="176" y="80" width="14" height="14" rx="rx" />
	<rect x="160" y="80" width="14" height="14" rx="rx" />
	<rect x="144" y="80" width="14" height="14" rx="rx" />
	<rect x="144" y="64" width="14" height="14" rx="rx" />
	<rect x="144" y="48" width="14" height="14" rx="rx" />
	<rect x="80" y="32" width="14" height="14" rx="rx" />
	<rect x="160" y="48" width="14" height="14" rx="rx" />
	<rect x="120" y="128" width="14" height="14" rx="rx" />
	<rect x="120" y="112" width="14" height="14" rx="rx" />
	<rect x="120" y="176" width="14" height="14" rx="rx" />
	<rect x="104" y="160" width="14" height="14" rx="rx" />
	<rect x="88" y="144" width="14" height="14" rx="rx" />
	<rect x="120" y="160" width="14" height="14" rx="rx" />
	<rect x="120" y="144" width="14" height="14" rx="rx" />
	<rect x="152" y="144" width="14" height="14" rx="rx" />
	<rect x="136" y="160" width="14" height="14" rx="rx" />
	<rect x="192" y="208" width="14" height="14" rx="rx" />
	<rect x="160" y="208" width="14" height="14" rx="rx" />
	<rect x="176" y="208" width="14" height="14" rx="rx" />
	<rect x="96" y="32" width="14" height="14" rx="rx" />
	<rect x="112" y="32" width="14" height="14" rx="rx" />
	<rect x="128" y="208" width="14" height="14" rx="rx" />
	<rect x="48" y="208" width="14" height="14" rx="rx" />
	<rect x="80" y="208" width="14" height="14" rx="rx" />
	<rect x="96" y="208" width="14" height="14" rx="rx" />
	<rect x="112" y="208" width="14" height="14" rx="rx" />
</svg>
