<svg
	width="256"
	height="256"
	viewBox="0 0 256 256"
	fill="none"
	xmlns="http://www.w3.org/2000/svg"
>
	<rect width="14" height="14" rx="rx" transform="matrix(0 -1 -1 0 208 56)" />
	<rect width="14" height="14" rx="rx" transform="matrix(0 -1 -1 0 192 56)" />
	<rect x="96" y="40" width="14" height="14" rx="rx" />
	<rect x="112" y="40" width="14" height="14" rx="rx" />
	<rect x="128" y="40" width="14" height="14" rx="rx" />
	<rect x="144" y="40" width="14" height="14" rx="rx" />
	<rect x="80" y="40" width="14" height="14" rx="rx" />
	<rect x="48" y="72" width="14" height="14" rx="rx" />
	<rect x="64" y="40" width="14" height="14" rx="rx" />
	<rect x="32" y="40" width="14" height="14" rx="rx" />
	<rect x="32" y="56" width="14" height="14" rx="rx" />
	<rect x="16" y="40" width="14" height="14" rx="rx" />
	<rect x="192" y="72" width="14" height="14" rx="rx" />
	<rect x="48" y="40" width="14" height="14" rx="rx" />
	<rect x="120" y="184" width="14" height="14" rx="rx" />
	<rect x="136" y="200" width="14" height="14" rx="rx" />
	<rect x="208" y="40" width="14" height="14" rx="rx" />
	<rect x="224" y="40" width="14" height="14" rx="rx" />
	<rect x="208" y="56" width="14" height="14" rx="rx" />
	<rect x="160" y="40" width="14" height="14" rx="rx" />
	<rect x="136" y="136" width="14" height="14" rx="rx" />
	<rect x="104" y="136" width="14" height="14" rx="rx" />
	<rect x="96" y="120" width="14" height="14" rx="rx" />
	<rect x="176" y="88" width="14" height="14" rx="rx" />
	<rect x="80" y="104" width="14" height="14" rx="rx" />
	<rect x="144" y="120" width="14" height="14" rx="rx" />
	<rect x="64" y="88" width="14" height="14" rx="rx" />
	<rect x="160" y="104" width="14" height="14" rx="rx" />
	<rect x="104" y="152" width="14" height="14" rx="rx" />
	<rect x="136" y="152" width="14" height="14" rx="rx" />
	<rect x="136" y="168" width="14" height="14" rx="rx" />
	<rect x="136" y="184" width="14" height="14" rx="rx" />
	<rect x="104" y="168" width="14" height="14" rx="rx" />
</svg>
