<svg width="256" height="256" viewBox="0 0 256 256" fill="none" xmlns="http://www.w3.org/2000/svg">
<rect x="96" y="64" width="14" height="14" rx="rx"/>
<rect x="48" y="64" width="14" height="14" rx="rx"/>
<rect x="32" y="112" width="14" height="14" rx="rx"/>
<rect x="32" y="144" width="14" height="14" rx="rx"/>
<rect x="32" y="128" width="14" height="14" rx="rx"/>
<rect x="64" y="176" width="14" height="14" rx="rx"/>
<rect x="144" y="64" width="14" height="14" rx="rx"/>
<rect x="208" y="128" width="14" height="14" rx="rx"/>
<rect x="32" y="160" width="14" height="14" rx="rx"/>
<rect x="48" y="176" width="14" height="14" rx="rx"/>
<rect x="176" y="64" width="14" height="14" rx="rx"/>
<rect x="208" y="112" width="14" height="14" rx="rx"/>
<rect x="32" y="80" width="14" height="14" rx="rx"/>
<rect x="80" y="136" width="14" height="14" rx="rx"/>
<rect x="80" y="104" width="14" height="14" rx="rx"/>
<rect x="208" y="96" width="14" height="14" rx="rx"/>
<rect x="32" y="96" width="14" height="14" rx="rx"/>
<rect x="208" y="80" width="14" height="14" rx="rx"/>
<rect x="208" y="144" width="14" height="14" rx="rx"/>
<rect x="208" y="160" width="14" height="14" rx="rx"/>
<rect x="176" y="176" width="14" height="14" rx="rx"/>
<rect x="160" y="64" width="14" height="14" rx="rx"/>
<rect x="64" y="64" width="14" height="14" rx="rx"/>
<rect x="192" y="64" width="14" height="14" rx="rx"/>
<rect x="192" y="176" width="14" height="14" rx="rx"/>
<rect x="80" y="64" width="14" height="14" rx="rx"/>
<rect x="112" y="64" width="14" height="14" rx="rx"/>
<rect x="80" y="120" width="14" height="14" rx="rx"/>
<rect x="64" y="120" width="14" height="14" rx="rx"/>
<rect x="96" y="120" width="14" height="14" rx="rx"/>
<rect x="144" y="128" width="14" height="14" rx="rx"/>
<rect x="176" y="112" width="14" height="14" rx="rx"/>
<rect x="160" y="176" width="14" height="14" rx="rx"/>
<rect x="128" y="64" width="14" height="14" rx="rx"/>
<rect x="144" y="176" width="14" height="14" rx="rx"/>
<rect x="80" y="176" width="14" height="14" rx="rx"/>
<rect x="96" y="176" width="14" height="14" rx="rx"/>
<rect x="112" y="176" width="14" height="14" rx="rx"/>
<rect x="128" y="176" width="14" height="14" rx="rx"/>
</svg>
