<svg
	width="256"
	height="256"
	viewBox="0 0 256 256"
	fill="none"
	xmlns="http://www.w3.org/2000/svg"
>
	<rect width="14" height="14" rx="rx" transform="matrix(0 -1 -1 0 104 136)" />
	<rect width="14" height="14" rx="rx" transform="matrix(0 -1 -1 0 104 104)" />
	<rect width="14" height="14" rx="rx" transform="matrix(0 -1 -1 0 136 104)" />
	<rect width="14" height="14" rx="rx" transform="matrix(0 -1 -1 0 136 136)" />
	<rect width="14" height="14" rx="rx" transform="matrix(0 -1 -1 0 168 136)" />
	<rect width="14" height="14" rx="rx" transform="matrix(0 -1 -1 0 168 104)" />
	<rect width="14" height="14" rx="rx" transform="matrix(0 -1 -1 0 104 168)" />
	<rect width="14" height="14" rx="rx" transform="matrix(0 -1 -1 0 136 168)" />
	<rect width="14" height="14" rx="rx" transform="matrix(0 -1 -1 0 168 168)" />
</svg>
