<svg
	width="256"
	height="256"
	viewBox="0 0 256 256"
	fill="none"
	xmlns="http://www.w3.org/2000/svg"
>
	<rect x="98" y="80" width="14" height="14" rx="rx" />
	<rect x="62" y="96" width="14" height="14" rx="rx" />
	<rect x="78" y="96" width="14" height="14" rx="rx" />
	<rect x="110" y="96" width="14" height="14" rx="rx" />
	<rect x="126" y="96" width="14" height="14" rx="rx" />
	<rect x="142" y="96" width="14" height="14" rx="rx" />
	<rect x="102" y="64" width="14" height="14" rx="rx" />
	<rect x="78" y="160" width="14" height="14" rx="rx" />
	<rect x="74" y="176" width="14" height="14" rx="rx" />
	<rect x="90" y="112" width="14" height="14" rx="rx" />
	<rect x="86" y="128" width="14" height="14" rx="rx" />
	<rect x="82" y="144" width="14" height="14" rx="rx" />
	<rect x="174" y="96" width="14" height="14" rx="rx" />
	<rect x="190" y="96" width="14" height="14" rx="rx" />
	<rect x="94" y="96" width="14" height="14" rx="rx" />
	<rect x="162" y="80" width="14" height="14" rx="rx" />
	<rect x="166" y="64" width="14" height="14" rx="rx" />
	<rect x="142" y="160" width="14" height="14" rx="rx" />
	<rect x="138" y="176" width="14" height="14" rx="rx" />
	<rect x="154" y="112" width="14" height="14" rx="rx" />
	<rect x="150" y="128" width="14" height="14" rx="rx" />
	<rect x="146" y="144" width="14" height="14" rx="rx" />
	<rect x="158" y="96" width="14" height="14" rx="rx" />
	<rect x="50" y="144" width="14" height="14" rx="rx" />
	<rect x="66" y="144" width="14" height="14" rx="rx" />
	<rect x="98" y="144" width="14" height="14" rx="rx" />
	<rect x="114" y="144" width="14" height="14" rx="rx" />
	<rect x="130" y="144" width="14" height="14" rx="rx" />
	<rect x="162" y="144" width="14" height="14" rx="rx" />
	<rect x="178" y="144" width="14" height="14" rx="rx" />
</svg>
