<svg
	width="256"
	height="256"
	viewBox="0 0 256 256"
	fill="currentColor"
	stroke="currentColor"
	stroke-width="0"
	stroke-linecap="round"
	stroke-linejoin="round"
	xmlns="http://www.w3.org/2000/svg"
>
	<rect x="192" y="192" width="14" height="14" />
	<rect x="176" y="192" width="14" height="14" />
	<rect x="64" y="192" width="14" height="14" />
	<rect x="48" y="176" width="14" height="14" />
	<rect x="48" y="192" width="14" height="14" />
	<rect x="192" y="160" width="14" height="14" />
	<rect x="192" y="176" width="14" height="14" />
	<rect x="48" y="160" width="14" height="14" />
	<rect x="96" y="176" width="14" height="14" />
	<rect x="96" y="160" width="14" height="14" />
	<rect x="144" y="176" width="14" height="14" />
	<rect x="144" y="160" width="14" height="14" />
	<rect x="48" y="144" width="14" height="14" />
	<rect x="48" y="128" width="14" height="14" />
	<rect x="192" y="144" width="14" height="14" />
	<rect x="192" y="128" width="14" height="14" />
	<rect x="80" y="192" width="14" height="14" />
	<rect x="96" y="192" width="14" height="14" />
	<rect x="112" y="192" width="14" height="14" />
	<rect x="128" y="192" width="14" height="14" />
	<rect x="144" y="192" width="14" height="14" />
	<rect x="96" y="144" width="14" height="14" />
	<rect x="96" y="128" width="14" height="14" />
	<rect x="144" y="128" width="14" height="14" />
	<rect x="112" y="128" width="14" height="14" />
	<rect x="128" y="128" width="14" height="14" />
	<rect x="144" y="144" width="14" height="14" />
	<rect x="160" y="192" width="14" height="14" />
	<rect width="14" height="14" transform="matrix(0 -1 -1 0 112 80)" />
	<rect width="14" height="14" transform="matrix(0 -1 -1 0 96 96)" />
	<rect width="14" height="14" transform="matrix(0 -1 -1 0 192 112)" />
	<rect width="14" height="14" transform="matrix(0 -1 -1 0 80 112)" />
	<rect width="14" height="14" transform="matrix(0 -1 -1 0 128 64)" />
	<rect width="14" height="14" transform="matrix(0 -1 -1 0 160 80)" />
	<rect width="14" height="14" transform="matrix(0 -1 -1 0 144 64)" />
	<rect width="14" height="14" transform="matrix(0 -1 -1 0 208 128)" />
	<rect width="14" height="14" transform="matrix(0 -1 -1 0 64 128)" />
	<rect width="14" height="14" transform="matrix(0 -1 -1 0 176 96)" />
</svg>
