<svg width="256" height="256" viewBox="0 0 256 256" fill="none"
  stroke="currentColor"
  stroke-width="2"
  stroke-linecap="round"
  stroke-linejoin="round"
 xmlns="http://www.w3.org/2000/svg">
<rect x="64" y="48" width="14" height="14" />
<rect x="32" y="64" width="14" height="14" />
<rect x="32" y="80" width="14" height="14" />
<rect x="32" y="96" width="14" height="14" />
<rect x="32" y="112" width="14" height="14" />
<rect x="32" y="128" width="14" height="14" />
<rect x="32" y="144" width="14" height="14" />
<rect x="32" y="160" width="14" height="14" />
<rect x="208" y="64" width="14" height="14" />
<rect x="208" y="80" width="14" height="14" />
<rect x="208" y="96" width="14" height="14" />
<rect x="208" y="112" width="14" height="14" />
<rect x="208" y="128" width="14" height="14" />
<rect x="208" y="144" width="14" height="14" />
<rect x="208" y="160" width="14" height="14" />
<rect x="192" y="176" width="14" height="14" />
<rect x="48" y="176" width="14" height="14" />
<rect x="64" y="176" width="14" height="14" />
<rect x="80" y="176" width="14" height="14" />
<rect x="96" y="176" width="14" height="14" />
<rect x="112" y="176" width="14" height="14" />
<path d="M96 112H112V128H96V112Z" />
<rect x="48" y="48" width="14" height="14" />
<rect x="192" y="48" width="14" height="14" />
<rect x="176" y="176" width="14" height="14" />
<rect x="48" y="160" width="14" height="14" />
<rect x="112" y="128" width="14" height="14" />
<rect x="48" y="64" width="14" height="14" />
<rect x="80" y="96" width="14" height="14" />
<rect x="144" y="112" width="14" height="14" />
<rect x="128" y="128" width="14" height="14" />
<rect x="80" y="128" width="14" height="14" />
<rect x="192" y="64" width="14" height="14" />
<rect x="176" y="80" width="14" height="14" />
<rect x="64" y="144" width="14" height="14" />
<rect x="160" y="96" width="14" height="14" />
<rect x="64" y="80" width="14" height="14" />
<path d="M192 160H208V176H192V160Z" />
<rect x="176" y="144" width="14" height="14" />
<rect x="160" y="128" width="14" height="14" />
<rect x="128" y="176" width="14" height="14" />
<rect x="144" y="176" width="14" height="14" />
<rect x="160" y="176" width="14" height="14" />
<rect x="80" y="48" width="14" height="14" />
<rect x="96" y="48" width="14" height="14" />
<rect x="112" y="48" width="14" height="14" />
<rect x="128" y="48" width="14" height="14" />
<rect x="144" y="48" width="14" height="14" />
<rect x="160" y="48" width="14" height="14" />
<rect x="176" y="48" width="14" height="14" />
</svg>
