<svg
	width="256"
	height="256"
	viewBox="0 0 256 256"
	fill="none"
	xmlns="http://www.w3.org/2000/svg"
>
	<rect x="76" y="128" width="14" height="14" rx="rx" />
	<rect x="76" y="144" width="14" height="14" rx="rx" />
	<rect x="172" y="168" width="14" height="14" rx="rx" />
	<rect x="156" y="168" width="14" height="14" rx="rx" />
	<rect x="156" y="184" width="14" height="14" rx="rx" />
	<rect x="140" y="184" width="14" height="14" rx="rx" />
	<rect x="172" y="200" width="14" height="14" rx="rx" />
	<rect x="156" y="200" width="14" height="14" rx="rx" />
	<rect x="76" y="112" width="14" height="14" rx="rx" />
	<rect x="188" y="152" width="14" height="14" rx="rx" />
	<rect x="140" y="64" width="14" height="14" rx="rx" />
	<rect x="188" y="136" width="14" height="14" rx="rx" />
	<rect x="188" y="120" width="14" height="14" rx="rx" />
	<rect x="188" y="168" width="14" height="14" rx="rx" />
	<rect x="108" y="56" width="14" height="14" rx="rx" />
	<rect x="124" y="60" width="14" height="14" rx="rx" />
	<rect x="172" y="73" width="14" height="14" rx="rx" />
	<rect x="76" y="96" width="14" height="14" rx="rx" />
	<rect x="188" y="104" width="14" height="14" rx="rx" />
	<rect x="76" y="80" width="14" height="14" rx="rx" />
	<rect x="188" y="88" width="14" height="14" rx="rx" />
	<rect x="188" y="76" width="14" height="14" rx="rx" />
	<rect x="76" y="64" width="14" height="14" rx="rx" />
	<rect x="156" y="68" width="14" height="14" rx="rx" />
	<rect x="188" y="184" width="14" height="14" rx="rx" />
	<rect x="172" y="184" width="14" height="14" rx="rx" />
	<rect x="60" y="144" width="14" height="14" rx="rx" />
	<rect x="44" y="144" width="14" height="14" rx="rx" />
	<rect x="44" y="160" width="14" height="14" rx="rx" />
	<rect x="28" y="160" width="14" height="14" rx="rx" />
	<rect x="60" y="176" width="14" height="14" rx="rx" />
	<rect x="44" y="176" width="14" height="14" rx="rx" />
	<rect x="60" y="160" width="14" height="14" rx="rx" />
	<rect x="76" y="160" width="14" height="14" rx="rx" />
	<rect x="76" y="48" width="14" height="14" rx="rx" />
	<rect x="92" y="52" width="14" height="14" rx="rx" />
</svg>
