<svg
	width="256"
	height="256"
	viewBox="0 0 256 256"
	fill="none"
	xmlns="http://www.w3.org/2000/svg"
>
	<rect
		x="168"
		y="104"
		width="14"
		height="14"
		rx="rx"
		transform="rotate(180 168 104)"
	/>
	<rect
		x="184"
		y="88"
		width="14"
		height="14"
		rx="rx"
		transform="rotate(180 184 88)"
	/>
	<rect
		x="104"
		y="168"
		width="14"
		height="14"
		rx="rx"
		transform="rotate(180 104 168)"
	/>
	<rect
		x="88"
		y="184"
		width="14"
		height="14"
		rx="rx"
		transform="rotate(180 88 184)"
	/>
	<rect
		x="56"
		y="216"
		width="14"
		height="14"
		rx="rx"
		transform="rotate(180 56 216)"
	/>
	<rect
		x="216"
		y="56"
		width="14"
		height="14"
		rx="rx"
		transform="rotate(180 216 56)"
	/>
	<rect
		x="72"
		y="200"
		width="14"
		height="14"
		rx="rx"
		transform="rotate(180 72 200)"
	/>
	<rect
		x="200"
		y="72"
		width="14"
		height="14"
		rx="rx"
		transform="rotate(180 200 72)"
	/>
	<rect
		x="152"
		y="120"
		width="14"
		height="14"
		rx="rx"
		transform="rotate(180 152 120)"
	/>
	<rect
		x="136"
		y="136"
		width="14"
		height="14"
		rx="rx"
		transform="rotate(180 136 136)"
	/>
	<rect
		x="120"
		y="152"
		width="14"
		height="14"
		rx="rx"
		transform="rotate(180 120 152)"
	/>
	<rect x="48" y="80" width="14" height="14" rx="rx" />
	<rect x="96" y="80" width="14" height="14" rx="rx" />
	<rect x="48" y="64" width="14" height="14" rx="rx" />
	<rect x="64" y="48" width="14" height="14" rx="rx" />
	<rect x="80" y="48" width="14" height="14" rx="rx" />
	<rect x="96" y="64" width="14" height="14" rx="rx" />
	<rect x="96" y="64" width="14" height="14" rx="rx" />
	<rect x="64" y="96" width="14" height="14" rx="rx" />
	<rect x="80" y="96" width="14" height="14" rx="rx" />
	<rect x="144" y="176" width="14" height="14" rx="rx" />
	<rect x="192" y="176" width="14" height="14" rx="rx" />
	<rect x="144" y="160" width="14" height="14" rx="rx" />
	<rect x="160" y="144" width="14" height="14" rx="rx" />
	<rect x="176" y="144" width="14" height="14" rx="rx" />
	<rect x="192" y="160" width="14" height="14" rx="rx" />
	<rect x="192" y="160" width="14" height="14" rx="rx" />
	<rect x="160" y="192" width="14" height="14" rx="rx" />
	<rect x="176" y="192" width="14" height="14" rx="rx" />
</svg>
