<svg
	width="256"
	height="256"
	viewBox="0 0 256 256"
	fill="none"
	xmlns="http://www.w3.org/2000/svg"
>
	<rect x="128" y="135" width="14" height="14" rx="rx" />
	<rect x="112" y="151" width="14" height="14" rx="rx" />
	<rect x="96" y="71" width="14" height="14" rx="rx" />
	<rect x="96" y="167" width="14" height="14" rx="rx" />
	<rect x="80" y="167" width="14" height="14" rx="rx" />
	<rect x="80" y="71" width="14" height="14" rx="rx" />
	<rect x="64" y="151" width="14" height="14" rx="rx" />
	<rect x="144" y="119" width="14" height="14" rx="rx" />
	<rect x="128" y="103" width="14" height="14" rx="rx" />
	<rect x="112" y="87" width="14" height="14" rx="rx" />
	<rect x="64" y="135" width="14" height="14" rx="rx" />
	<rect x="64" y="103" width="14" height="14" rx="rx" />
	<rect x="64" y="119" width="14" height="14" rx="rx" />
	<rect x="64" y="87" width="14" height="14" rx="rx" />
	<rect x="176" y="73" width="14" height="14" rx="rx" />
	<rect x="176" y="153" width="14" height="14" rx="rx" />
	<rect x="176" y="169" width="14" height="14" rx="rx" />
	<rect x="176" y="137" width="14" height="14" rx="rx" />
	<rect x="176" y="105" width="14" height="14" rx="rx" />
	<rect x="176" y="121" width="14" height="14" rx="rx" />
	<rect x="176" y="89" width="14" height="14" rx="rx" />
</svg>
