<svg width="256" height="256" viewBox="0 0 256 256" fill="none" xmlns="http://www.w3.org/2000/svg">
<rect x="48" y="64" width="14" height="14" rx="rx" />
<rect x="48" y="48" width="14" height="14" rx="rx" />
<rect x="48" y="80" width="14" height="14" rx="rx" />
<rect x="48" y="112" width="14" height="14" rx="rx" />
<rect x="48" y="96" width="14" height="14" rx="rx" />
<rect x="48" y="128" width="14" height="14" rx="rx" />
<rect x="48" y="160" width="14" height="14" rx="rx" />
<rect x="48" y="144" width="14" height="14" rx="rx" />
<rect x="48" y="176" width="14" height="14" rx="rx" />
<rect x="48" y="192" width="14" height="14" rx="rx" />
<rect x="96" y="64" width="14" height="14" rx="rx" />
<rect x="96" y="48" width="14" height="14" rx="rx" />
<rect x="96" y="80" width="14" height="14" rx="rx" />
<rect x="96" y="112" width="14" height="14" rx="rx" />
<rect x="96" y="96" width="14" height="14" rx="rx" />
<rect x="96" y="128" width="14" height="14" rx="rx" />
<rect x="96" y="160" width="14" height="14" rx="rx" />
<rect x="96" y="144" width="14" height="14" rx="rx" />
<rect x="96" y="176" width="14" height="14" rx="rx" />
<rect x="96" y="192" width="14" height="14" rx="rx" />
<rect x="144" y="64" width="14" height="14" rx="rx" />
<rect x="144" y="48" width="14" height="14" rx="rx" />
<rect x="144" y="80" width="14" height="14" rx="rx" />
<rect x="144" y="112" width="14" height="14" rx="rx" />
<rect x="144" y="96" width="14" height="14" rx="rx" />
<rect x="144" y="128" width="14" height="14" rx="rx" />
<rect x="144" y="160" width="14" height="14" rx="rx" />
<rect x="144" y="144" width="14" height="14" rx="rx" />
<rect x="144" y="176" width="14" height="14" rx="rx" />
<rect x="144" y="192" width="14" height="14" rx="rx" />
</svg>
