<svg
	width="256"
	height="256"
	viewBox="0 0 256 256"
	fill="none"
	xmlns="http://www.w3.org/2000/svg"
>
	<rect
		x="72"
		y="120"
		width="14"
		height="14"
		rx="rx"
		transform="rotate(90 72 120)"
	/>
	<rect
		x="56"
		y="136"
		width="14"
		height="14"
		rx="rx"
		transform="rotate(90 56 136)"
	/>
	<rect
		x="88"
		y="104"
		width="14"
		height="14"
		rx="rx"
		transform="rotate(90 88 104)"
	/>
	<rect
		x="104"
		y="88"
		width="14"
		height="14"
		rx="rx"
		transform="rotate(90 104 88)"
	/>
	<rect
		x="120"
		y="104"
		width="14"
		height="14"
		rx="rx"
		transform="rotate(90 120 104)"
	/>
	<rect
		x="136"
		y="120"
		width="14"
		height="14"
		rx="rx"
		transform="rotate(90 136 120)"
	/>
	<rect
		x="152"
		y="104"
		width="14"
		height="14"
		rx="rx"
		transform="rotate(90 152 104)"
	/>
	<rect
		x="184"
		y="72"
		width="14"
		height="14"
		rx="rx"
		transform="rotate(90 184 72)"
	/>
	<rect
		x="216"
		y="56"
		width="14"
		height="14"
		rx="rx"
		transform="rotate(90 216 56)"
	/>
	<rect
		x="200"
		y="56"
		width="14"
		height="14"
		rx="rx"
		transform="rotate(90 200 56)"
	/>
	<rect
		x="168"
		y="88"
		width="14"
		height="14"
		rx="rx"
		transform="rotate(90 168 88)"
	/>
	<rect
		x="200"
		y="40"
		width="14"
		height="14"
		rx="rx"
		transform="rotate(90 200 40)"
	/>
	<rect
		x="216"
		y="40"
		width="14"
		height="14"
		rx="rx"
		transform="rotate(90 216 40)"
	/>
	<rect
		x="184"
		y="40"
		width="14"
		height="14"
		rx="rx"
		transform="rotate(90 184 40)"
	/>
	<rect
		x="216"
		y="72"
		width="14"
		height="14"
		rx="rx"
		transform="rotate(90 216 72)"
	/>
	<rect
		x="184"
		y="168"
		width="14"
		height="14"
		rx="rx"
		transform="rotate(90 184 168)"
	/>
	<rect
		x="168"
		y="152"
		width="14"
		height="14"
		rx="rx"
		transform="rotate(90 168 152)"
	/>
	<rect
		x="200"
		y="184"
		width="14"
		height="14"
		rx="rx"
		transform="rotate(90 200 184)"
	/>
	<rect
		x="200"
		y="200"
		width="14"
		height="14"
		rx="rx"
		transform="rotate(90 200 200)"
	/>
	<rect
		x="216"
		y="200"
		width="14"
		height="14"
		rx="rx"
		transform="rotate(90 216 200)"
	/>
	<rect
		x="216"
		y="184"
		width="14"
		height="14"
		rx="rx"
		transform="rotate(90 216 184)"
	/>
	<rect
		x="184"
		y="200"
		width="14"
		height="14"
		rx="rx"
		transform="rotate(90 184 200)"
	/>
	<rect
		x="216"
		y="168"
		width="14"
		height="14"
		rx="rx"
		transform="rotate(90 216 168)"
	/>
</svg>
