<svg
	width="256"
	height="256"
	viewBox="0 0 256 256"
	fill="none"
	xmlns="http://www.w3.org/2000/svg"
>
	<rect x="64" y="144" width="14" height="14" rx="rx" />
	<rect x="96" y="80" width="14" height="14" rx="rx" />
	<rect x="144" y="80" width="14" height="14" rx="rx" />
	<rect x="192" y="192" width="14" height="14" rx="rx" />
	<rect x="176" y="192" width="14" height="14" rx="rx" />
	<rect x="64" y="192" width="14" height="14" rx="rx" />
	<rect x="48" y="176" width="14" height="14" rx="rx" />
	<rect x="48" y="192" width="14" height="14" rx="rx" />
	<rect x="192" y="160" width="14" height="14" rx="rx" />
	<rect x="176" y="144" width="14" height="14" rx="rx" />
	<rect x="192" y="176" width="14" height="14" rx="rx" />
	<rect x="48" y="160" width="14" height="14" rx="rx" />
	<rect x="96" y="64" width="14" height="14" rx="rx" />
	<rect x="112" y="48" width="14" height="14" rx="rx" />
	<rect x="128" y="48" width="14" height="14" rx="rx" />
	<rect x="144" y="64" width="14" height="14" rx="rx" />
	<rect x="144" y="64" width="14" height="14" rx="rx" />
	<rect x="128" y="80" width="14" height="14" rx="rx" />
	<rect x="128" y="64" width="14" height="14" rx="rx" />
	<rect x="112" y="80" width="14" height="14" rx="rx" />
	<rect x="112" y="64" width="14" height="14" rx="rx" />
	<rect x="112" y="176" width="14" height="14" rx="rx" />
	<rect x="160" y="176" width="14" height="14" rx="rx" />
	<rect x="112" y="160" width="14" height="14" rx="rx" />
	<rect x="160" y="160" width="14" height="14" rx="rx" />
	<rect x="160" y="160" width="14" height="14" rx="rx" />
	<rect x="144" y="176" width="14" height="14" rx="rx" />
	<rect x="144" y="160" width="14" height="14" rx="rx" />
	<rect x="128" y="176" width="14" height="14" rx="rx" />
	<rect x="128" y="160" width="14" height="14" rx="rx" />
	<rect x="176" y="176" width="14" height="14" rx="rx" />
	<rect x="176" y="160" width="14" height="14" rx="rx" />
	<rect x="96" y="160" width="14" height="14" rx="rx" />
	<rect x="96" y="176" width="14" height="14" rx="rx" />
	<rect x="64" y="176" width="14" height="14" rx="rx" />
	<rect x="64" y="160" width="14" height="14" rx="rx" />
	<rect x="64" y="160" width="14" height="14" rx="rx" />
	<rect x="80" y="176" width="14" height="14" rx="rx" />
	<rect x="80" y="160" width="14" height="14" rx="rx" />
	<rect x="112" y="96" width="14" height="14" rx="rx" />
	<rect x="128" y="96" width="14" height="14" rx="rx" />
	<rect x="80" y="144" width="14" height="14" rx="rx" />
	<rect x="96" y="144" width="14" height="14" rx="rx" />
	<rect x="112" y="144" width="14" height="14" rx="rx" />
	<rect x="128" y="144" width="14" height="14" rx="rx" />
	<rect x="144" y="144" width="14" height="14" rx="rx" />
	<rect x="160" y="144" width="14" height="14" rx="rx" />
	<rect x="80" y="192" width="14" height="14" rx="rx" />
	<rect x="96" y="192" width="14" height="14" rx="rx" />
	<rect x="112" y="192" width="14" height="14" rx="rx" />
	<rect x="128" y="192" width="14" height="14" rx="rx" />
	<rect x="144" y="192" width="14" height="14" rx="rx" />
	<rect x="160" y="192" width="14" height="14" rx="rx" />
</svg>
